<svg id="Layer_1" data-name="Layer 1" xmlns="http://www.w3.org/2000/svg" viewBox="0 0 390.45 74.13"><defs><style>.cls-1{fill:#26cf8e;}</style></defs><path class="cls-1" d="M30.24,155.71,0,85.61H14.12a6.67,6.67,0,0,1,6.14,4.06l26.23,61.6H35.58L62.22,89.63a6.68,6.68,0,0,1,6.13-4H81L50.66,155.72a6.66,6.66,0,0,1-6.12,4H36.37A6.68,6.68,0,0,1,30.24,155.71Z" transform="translate(0 -85.61)"/><path class="cls-1" d="M104.2,146h33.68a6.67,6.67,0,0,1,6.67,6.67v7.1H93.82a6.67,6.67,0,0,1-6.67-6.67V92.28a6.67,6.67,0,0,1,6.67-6.67h49.35V92.7a6.67,6.67,0,0,1-6.67,6.68H104.2Zm-1.27-30.5h29a6.67,6.67,0,0,1,6.67,6.67h0a6.67,6.67,0,0,1-6.67,6.67h-29Z" transform="translate(0 -85.61)"/><path class="cls-1" d="M158.21,159.74V92.28a6.67,6.67,0,0,1,6.67-6.67H190.3a41.56,41.56,0,0,1,17.15,3.23,25.11,25.11,0,0,1,11.12,9.26,25.92,25.92,0,0,1,3.92,14.41,25.44,25.44,0,0,1-3.92,14.24,24.91,24.91,0,0,1-11.12,9.16,42.24,42.24,0,0,1-17.15,3.18H167.74l7.62-7.52v21.5a6.67,6.67,0,0,1-6.67,6.67Zm17.15-26.27-7.62-8h21.6q7.95,0,11.86-3.45t3.92-9.47q0-6.15-3.92-9.53t-11.86-3.39h-21.6l7.62-8.16Zm28,23.38-16.55-24h18.32l18.75,26.9h-15A6.66,6.66,0,0,1,203.35,156.85Z" transform="translate(0 -85.61)"/><path class="cls-1" d="M236,159.74V92.28a6.67,6.67,0,0,1,6.68-6.67h29.54q14,0,21,5.29a16.64,16.64,0,0,1,7,14A17.88,17.88,0,0,1,297.47,115a18.77,18.77,0,0,1-7.84,6.61,26.6,26.6,0,0,1-11.44,2.33l2-4.34a31.62,31.62,0,0,1,12.39,2.28A18.66,18.66,0,0,1,301,128.6a19,19,0,0,1,3,10.91,17.24,17.24,0,0,1-7.52,14.88q-7.51,5.36-22.13,5.35Zm17.05-12.92h20q6.67,0,10.11-2.17c2.3-1.45,3.44-3.76,3.44-6.94a7.74,7.74,0,0,0-3.44-6.94q-3.44-2.27-10.11-2.27H251.82V116h18.32c4.17,0,7.36-.72,9.59-2.17a7.36,7.36,0,0,0,3.33-6.62,7.26,7.26,0,0,0-3.33-6.51c-2.23-1.45-5.42-2.17-9.59-2.17h-17Z" transform="translate(0 -85.61)"/><path class="cls-1" d="M307.31,159.74l31.28-70.18a6.68,6.68,0,0,1,6.1-4H353a6.66,6.66,0,0,1,6.09,4l31.38,70.18H376.9a6.67,6.67,0,0,1-6.16-4.12L345.33,94.29h6.78L326.6,155.63a6.66,6.66,0,0,1-6.16,4.11Zm16.52-15.89,4.56-13h38.12l4.66,13Z" transform="translate(0 -85.61)"/></svg>